<?xml version="1.0" encoding="UTF-8" ?>
<!DOCTYPE svg PUBLIC "-//W3C//DTD SVG 1.1//EN" "http://www.w3.org/Graphics/SVG/1.1/DTD/svg11.dtd">
<svg width="77pt" height="35pt" viewBox="0 0 77 35" version="1.1" xmlns="http://www.w3.org/2000/svg">
<g id="#ffffffff">
<path fill="#ffffff" opacity="1.00" d=" M 0.00 0.00 L 77.00 0.00 L 77.00 35.00 L 0.00 35.00 L 0.00 0.00 M 31.91 6.66 C 29.74 9.73 26.13 12.03 25.27 15.85 C 22.89 15.92 20.56 15.41 18.54 14.11 C 18.71 20.09 20.30 26.78 25.53 30.35 C 33.65 35.61 45.54 34.20 51.83 26.69 C 54.52 26.60 57.21 26.56 59.89 26.39 C 59.64 25.48 59.40 24.57 59.17 23.66 C 53.62 25.32 47.84 26.02 42.05 25.87 C 41.10 26.53 40.16 27.20 39.22 27.87 C 38.40 27.66 36.76 27.26 35.94 27.06 C 34.48 23.47 30.45 24.69 27.43 24.72 C 27.38 24.11 27.27 22.87 27.21 22.26 C 25.92 21.17 24.63 20.08 23.35 18.96 C 24.26 19.31 26.08 20.02 26.99 20.38 C 26.77 18.55 26.55 16.73 26.29 14.91 C 28.11 12.50 30.03 10.18 32.03 7.92 C 34.99 11.44 37.79 15.08 40.88 18.49 C 43.54 17.07 46.21 15.67 48.86 14.22 C 46.27 11.40 43.77 8.50 41.32 5.56 C 38.20 6.05 35.06 6.43 31.91 6.66 M 30.59 17.54 C 30.64 19.11 30.71 20.67 30.77 22.23 C 32.23 22.50 33.69 22.75 35.15 23.00 C 35.15 21.55 35.16 20.09 35.16 18.64 C 33.64 18.28 32.11 17.91 30.59 17.54 M 46.67 17.40 C 46.27 19.59 46.79 22.29 44.71 23.83 C 46.87 23.73 49.03 23.60 51.19 23.46 C 50.06 21.17 48.42 19.22 46.67 17.40 Z" />
<path fill="#ffffff" opacity="1.00" d=" M 37.58 7.69 C 38.64 7.64 39.70 7.59 40.77 7.53 C 40.70 9.25 40.74 11.00 40.28 12.68 C 39.27 12.01 38.39 11.17 37.49 10.37 C 37.52 9.47 37.55 8.58 37.58 7.69 Z" />
</g>
<g id="#358b36ff">
<path fill="#358b36" opacity="1.00" d=" M 31.91 6.66 C 35.06 6.43 38.20 6.05 41.32 5.56 C 43.77 8.50 46.27 11.40 48.86 14.22 C 46.21 15.67 43.54 17.07 40.88 18.49 C 37.79 15.08 34.99 11.44 32.03 7.92 C 30.03 10.18 28.11 12.50 26.29 14.91 C 26.55 16.73 26.77 18.55 26.99 20.38 C 26.08 20.02 24.26 19.31 23.35 18.96 C 24.63 20.08 25.92 21.17 27.21 22.26 C 27.27 22.87 27.38 24.11 27.43 24.72 C 30.45 24.69 34.48 23.47 35.94 27.06 C 36.76 27.26 38.40 27.66 39.22 27.87 C 40.16 27.20 41.10 26.53 42.05 25.87 C 47.84 26.02 53.62 25.32 59.17 23.66 C 59.40 24.57 59.64 25.48 59.89 26.39 C 57.21 26.56 54.52 26.60 51.83 26.69 C 45.54 34.20 33.65 35.61 25.53 30.35 C 20.30 26.78 18.71 20.09 18.54 14.11 C 20.56 15.41 22.89 15.92 25.27 15.85 C 26.13 12.03 29.74 9.73 31.91 6.66 M 37.58 7.69 C 37.55 8.58 37.52 9.47 37.49 10.37 C 38.39 11.17 39.27 12.01 40.28 12.68 C 40.74 11.00 40.70 9.25 40.77 7.53 C 39.70 7.59 38.64 7.64 37.58 7.69 Z" />
<path fill="#358b36" opacity="1.00" d=" M 30.59 17.54 C 32.11 17.91 33.64 18.28 35.16 18.64 C 35.16 20.09 35.15 21.55 35.15 23.00 C 33.69 22.75 32.23 22.50 30.77 22.23 C 30.71 20.67 30.64 19.11 30.59 17.54 Z" />
<path fill="#358b36" opacity="1.00" d=" M 46.67 17.40 C 48.42 19.22 50.06 21.17 51.19 23.46 C 49.03 23.60 46.87 23.73 44.71 23.83 C 46.79 22.29 46.27 19.59 46.67 17.40 Z" />
</g>
</svg>
